<?xml version="1.0" encoding="UTF-8" standalone="no"?>
<!DOCTYPE svg PUBLIC "-//W3C//DTD SVG 1.1//EN" "http://www.w3.org/Graphics/SVG/1.1/DTD/svg11.dtd">
<svg width="100%" height="100%" viewBox="0 0 128 128" version="1.1" xmlns="http://www.w3.org/2000/svg" xmlns:xlink="http://www.w3.org/1999/xlink" xml:space="preserve" xmlns:serif="http://www.serif.com/" style="fill-rule:evenodd;clip-rule:evenodd;stroke-linejoin:round;stroke-miterlimit:1.41421;">
    <g transform="matrix(2.66667,0,0,2.66667,1.42109e-14,1.42109e-14)">
        <path d="M48,9C48,4.033 43.967,0 39,0L9,0C4.033,0 0,4.033 0,9L0,39C0,43.967 4.033,48 9,48L39,48C43.967,48 48,43.967 48,39L48,9Z" style="fill:rgb(103,58,183);"/>
    </g>
    <g transform="matrix(7,0,0,7,-438.249,-350.822)">
        <path d="M72.5,56.448C72.5,56.604 72.555,56.737 72.664,56.846C72.773,56.956 72.906,57.01 73.062,57.01L76.25,57.01L76.25,64.698C76.25,64.854 76.195,64.987 76.086,65.096C75.976,65.206 75.844,65.26 75.687,65.26L67.812,65.26C67.656,65.26 67.523,65.206 67.414,65.096C67.305,64.987 67.25,64.854 67.25,64.698L67.25,53.823C67.25,53.667 67.305,53.534 67.414,53.424C67.523,53.315 67.656,53.26 67.812,53.26L72.5,53.26L72.5,56.448ZM76.25,56.12C76.25,55.963 76.195,55.831 76.086,55.721L73.789,53.424C73.68,53.315 73.547,53.26 73.39,53.26L73.25,53.26L73.25,56.26L76.25,56.26L76.25,56.12Z" style="fill:white;fill-rule:nonzero;"/>
    </g>
    <g transform="matrix(3.04762,0,0,3.04762,-131.778,-104.94)">
        <path d="M71.294,55.005C71.435,55.068 71.544,55.162 71.623,55.287C71.701,55.412 71.74,55.552 71.74,55.708L71.74,63.138C71.74,63.357 71.665,63.537 71.517,63.677C71.369,63.818 71.193,63.888 70.99,63.888C70.912,63.888 70.826,63.873 70.732,63.841C70.06,63.638 69.341,63.537 68.576,63.537C67.935,63.537 67.208,63.607 66.396,63.748C65.927,63.841 65.208,64.009 64.24,64.251C63.271,64.494 62.552,64.662 62.083,64.755C61.271,64.912 60.544,64.99 59.904,64.99C58.919,64.99 58.013,64.818 57.185,64.474C57.044,64.412 56.935,64.318 56.857,64.193C56.779,64.068 56.74,63.927 56.74,63.771L56.74,56.341C56.74,56.123 56.814,55.943 56.962,55.802C57.111,55.662 57.287,55.591 57.49,55.591C57.568,55.591 57.654,55.607 57.748,55.638C58.419,55.841 59.138,55.943 59.904,55.943C60.544,55.943 61.271,55.873 62.083,55.732C62.552,55.638 63.271,55.47 64.24,55.228C65.208,54.986 65.927,54.818 66.396,54.724C67.208,54.568 67.935,54.49 68.576,54.49C69.56,54.49 70.466,54.662 71.294,55.005ZM64.24,61.99C64.755,61.99 65.197,61.771 65.564,61.333C65.931,60.896 66.115,60.365 66.115,59.74C66.115,59.115 65.931,58.583 65.564,58.146C65.197,57.708 64.755,57.49 64.24,57.49C63.724,57.49 63.283,57.708 62.915,58.146C62.548,58.583 62.365,59.115 62.365,59.74C62.365,60.365 62.548,60.896 62.915,61.333C63.283,61.771 63.724,61.99 64.24,61.99Z" style="fill:rgb(103,58,183);fill-rule:nonzero;"/>
    </g>
</svg>
