<?xml version="1.0" encoding="UTF-8" standalone="no"?>
<!DOCTYPE svg PUBLIC "-//W3C//DTD SVG 1.1//EN" "http://www.w3.org/Graphics/SVG/1.1/DTD/svg11.dtd">
<svg width="100%" height="100%" viewBox="0 0 128 128" version="1.1" xmlns="http://www.w3.org/2000/svg" xmlns:xlink="http://www.w3.org/1999/xlink" xml:space="preserve" xmlns:serif="http://www.serif.com/" style="fill-rule:evenodd;clip-rule:evenodd;stroke-linejoin:round;stroke-miterlimit:1.41421;">
    <g transform="matrix(2.66667,0,0,2.66667,1.42109e-14,1.42109e-14)">
        <path d="M48,9C48,4.033 43.967,0 39,0L9,0C4.033,0 0,4.033 0,9L0,39C0,43.967 4.033,48 9,48L39,48C43.967,48 48,43.967 48,39L48,9Z" style="fill:rgb(103,58,183);"/>
    </g>
    <g transform="matrix(7,0,0,7,-438.249,-350.822)">
        <path d="M72.5,56.448C72.5,56.604 72.555,56.737 72.664,56.846C72.773,56.956 72.906,57.01 73.062,57.01L76.25,57.01L76.25,64.698C76.25,64.854 76.195,64.987 76.086,65.096C75.976,65.206 75.844,65.26 75.687,65.26L67.812,65.26C67.656,65.26 67.523,65.206 67.414,65.096C67.305,64.987 67.25,64.854 67.25,64.698L67.25,53.823C67.25,53.667 67.305,53.534 67.414,53.424C67.523,53.315 67.656,53.26 67.812,53.26L72.5,53.26L72.5,56.448ZM76.25,56.12C76.25,55.963 76.195,55.831 76.086,55.721L73.789,53.424C73.68,53.315 73.547,53.26 73.39,53.26L73.25,53.26L73.25,56.26L76.25,56.26L76.25,56.12Z" style="fill:white;fill-rule:nonzero;"/>
    </g>
    <g transform="matrix(3.80952,0,0,3.80952,-153.327,-37.2251)">
        <path d="M54.049,26.736C54.049,26.845 54.084,26.935 54.154,27.005C54.224,27.075 54.314,27.111 54.424,27.111L62.674,27.111C62.783,27.111 62.873,27.075 62.943,27.005C63.014,26.935 63.049,26.845 63.049,26.736L63.049,25.798C63.049,25.689 63.014,25.599 62.943,25.529C62.873,25.458 62.783,25.423 62.674,25.423L54.424,25.423C54.314,25.423 54.224,25.458 54.154,25.529C54.084,25.599 54.049,25.689 54.049,25.798L54.049,26.736ZM54.424,30.861C54.314,30.861 54.224,30.825 54.154,30.755C54.084,30.685 54.049,30.595 54.049,30.486L54.049,29.548C54.049,29.439 54.084,29.349 54.154,29.279C54.224,29.208 54.314,29.173 54.424,29.173L62.674,29.173C62.783,29.173 62.873,29.208 62.943,29.279C63.014,29.349 63.049,29.439 63.049,29.548L63.049,30.486C63.049,30.595 63.014,30.685 62.943,30.755C62.873,30.825 62.783,30.861 62.674,30.861L54.424,30.861ZM54.424,34.611C54.314,34.611 54.224,34.575 54.154,34.505C54.084,34.435 54.049,34.345 54.049,34.236L54.049,33.298C54.049,33.189 54.084,33.099 54.154,33.029C54.224,32.958 54.314,32.923 54.424,32.923L62.674,32.923C62.783,32.923 62.873,32.958 62.943,33.029C63.014,33.099 63.049,33.189 63.049,33.298L63.049,34.236C63.049,34.345 63.014,34.435 62.943,34.505C62.873,34.575 62.783,34.611 62.674,34.611L54.424,34.611ZM51.424,27.392C51.314,27.392 51.224,27.357 51.154,27.286C51.084,27.216 51.049,27.126 51.049,27.017L51.049,25.517C51.049,25.407 51.084,25.318 51.154,25.247C51.224,25.177 51.314,25.142 51.424,25.142L52.924,25.142C53.033,25.142 53.123,25.177 53.193,25.247C53.264,25.318 53.299,25.407 53.299,25.517L53.299,27.017C53.299,27.126 53.264,27.216 53.193,27.286C53.123,27.357 53.033,27.392 52.924,27.392L51.424,27.392ZM51.424,31.142C51.314,31.142 51.224,31.107 51.154,31.036C51.084,30.966 51.049,30.876 51.049,30.767L51.049,29.267C51.049,29.157 51.084,29.068 51.154,28.997C51.224,28.927 51.314,28.892 51.424,28.892L52.924,28.892C53.033,28.892 53.123,28.927 53.193,28.997C53.264,29.068 53.299,29.157 53.299,29.267L53.299,30.767C53.299,30.876 53.264,30.966 53.193,31.036C53.123,31.107 53.033,31.142 52.924,31.142L51.424,31.142ZM51.424,34.892C51.314,34.892 51.224,34.857 51.154,34.786C51.084,34.716 51.049,34.626 51.049,34.517L51.049,33.017C51.049,32.907 51.084,32.818 51.154,32.747C51.224,32.677 51.314,32.642 51.424,32.642L52.924,32.642C53.033,32.642 53.123,32.677 53.193,32.747C53.264,32.818 53.299,32.907 53.299,33.017L53.299,34.517C53.299,34.626 53.264,34.716 53.193,34.786C53.123,34.857 53.033,34.892 52.924,34.892L51.424,34.892Z" style="fill:rgb(103,58,183);fill-rule:nonzero;"/>
    </g>
</svg>
